<?xml version="1.0" encoding="utf-8"?>
<!-- Generator: Adobe Illustrator 24.1.2, SVG Export Plug-In . SVG Version: 6.00 Build 0)  -->
<svg version="1.1" id="Layer_1" xmlns="http://www.w3.org/2000/svg" xmlns:xlink="http://www.w3.org/1999/xlink" x="0px" y="0px"
	 viewBox="0 0 1000 300" style="enable-background:new 0 0 1000 300;" xml:space="preserve">
<style type="text/css">
	.st0{fill:#FF3126;}
</style>
<g id="Group_144" transform="translate(-232.585 -199)">
	<circle id="Ellipse_11" class="st0" cx="560.41" cy="269.89" r="18.86"/>
	<path id="Path_1605" class="st0" d="M302.24,261.18h52.74c22.95,0,40.27,4.56,51.95,13.68c11.68,9.12,17.53,23.94,17.54,44.48
		c-0.11,8.21-0.94,16.39-2.49,24.45c-1.99,13.61-6.2,26.8-12.45,39.05c-4.94,9.43-11.9,17.66-20.37,24.11
		c-8.12,5.94-17.42,10.07-27.28,12.11c-10.98,2.27-22.17,3.38-33.39,3.3h-57.72L302.24,261.18z M333.48,292.42l-19.47,98.68h18.79
		c6.45,0.07,12.9-0.5,19.24-1.7c5.38-1.03,10.41-3.4,14.62-6.9c4.59-4.08,8.19-9.15,10.53-14.83c3.38-8.25,5.74-16.87,7.02-25.69
		c0.75-4.22,1.32-8.07,1.7-11.54c0.36-3.23,0.55-6.48,0.57-9.73c0.16-4.78-0.61-9.55-2.26-14.03c-1.37-3.44-3.68-6.42-6.68-8.6
		c-3.29-2.26-7.04-3.76-10.98-4.41c-5.08-0.89-10.23-1.3-15.39-1.25L333.48,292.42z"/>
	<path id="Path_1606" class="st0" d="M498.95,303.28c5.44,0,9.85,0.04,13.24,0.11c3.39,0.08,6.97,0.26,10.76,0.57l-11.09,28.97
		c-2.26-0.15-4.38-0.26-6.34-0.34c-1.96-0.08-3.85-0.11-5.66-0.11c-3.54-0.07-7.07,0.27-10.53,1.02c-2.58,0.57-4.97,1.82-6.9,3.62
		c-1.95,1.96-3.45,4.31-4.41,6.9c-1.34,3.6-2.36,7.31-3.06,11.09l-13.11,67.23h-35.99l13.58-69.49c1.46-8.61,4.16-16.96,8.02-24.79
		c3-5.93,7.29-11.12,12.56-15.17c5.08-3.74,10.91-6.33,17.09-7.58C484.3,303.89,491.62,303.2,498.95,303.28z"/>
	<path id="Path_1607" class="st0" d="M535.41,303.96h35.99L548.3,422.33h-35.99L535.41,303.96z"/>
	<path id="Path_1608" class="st0" d="M562.33,461.96l20.37-104.13c1.67-9.33,4.48-18.41,8.37-27.05c3.06-6.76,7.5-12.81,13.02-17.77
		c5.27-4.56,11.5-7.89,18.22-9.73c7.75-2.06,15.75-3.05,23.77-2.94c17.51,0,30.55,3.47,39.14,10.41
		c8.59,6.94,12.89,18.18,12.9,33.73c-0.02,3.63-0.25,7.25-0.68,10.85c-0.45,3.93-1.05,8.08-1.81,12.45
		c-4.09,20.68-11.03,35.55-20.83,44.59c-10.66,9.37-24.53,14.23-38.71,13.58c-13.43,0-23.09-2.94-28.97-8.83l-8.83,44.8
		L562.33,461.96z M634.09,397.7c3.18,0.06,6.34-0.36,9.39-1.25c2.72-0.88,5.14-2.48,7.02-4.64c2.3-2.74,4.06-5.89,5.19-9.28
		c1.72-4.96,3.12-10.03,4.19-15.17c1.55-6.92,2.45-13.97,2.71-21.05c0.09-3.04-0.33-6.06-1.24-8.96c-0.68-2.11-1.93-3.99-3.62-5.43
		c-1.65-1.31-3.59-2.2-5.66-2.6c-2.5-0.48-5.04-0.71-7.58-0.68c-3.29-0.06-6.57,0.35-9.73,1.25c-2.74,0.84-5.2,2.41-7.14,4.53
		c-2.31,2.69-4.08,5.8-5.19,9.17c-1.7,4.89-3.1,9.88-4.18,14.94c-0.99,3.99-1.74,8.03-2.26,12.11c-0.41,3.04-0.64,6.1-0.68,9.17
		c0,7.1,1.58,11.85,4.75,14.26C624.22,396.75,629.14,398.03,634.09,397.7z"/>
	<path id="Path_1609" class="st0" d="M740.25,422.35h-36.01l32.82-168.19h36.03l-10.41,53.2c3.21-2.35,6.81-4.11,10.64-5.19
		c5.1-1.33,10.35-1.94,15.62-1.81c5.58-0.06,11.13,0.67,16.51,2.15c4.7,1.28,9.1,3.5,12.92,6.53c3.66,3,6.54,6.84,8.38,11.21
		c2.08,5.18,3.08,10.72,2.94,16.3c-0.04,4.87-0.57,9.72-1.58,14.49l-13.81,71.31h-36.01l14.03-71.98c0.31-1.51,0.54-2.86,0.68-4.07
		c0.15-1.2,0.23-2.41,0.23-3.62c0.41-3.84-1.07-7.63-3.96-10.19c-3.48-2.19-7.56-3.22-11.66-2.94c-3.27-0.07-6.55,0.27-9.73,1.02
		c-2.4,0.59-4.61,1.75-6.45,3.4c-1.87,1.78-3.34,3.94-4.3,6.34c-1.3,3.25-2.25,6.62-2.83,10.07L740.25,422.35z"/>
	<path id="Path_1610" class="st0" d="M911.61,300.34c16.45,0,28.98,3.36,37.58,10.07c8.6,6.72,12.9,18,12.9,33.84
		c-0.01,3.52-0.24,7.03-0.68,10.53c-0.45,3.7-1.06,7.59-1.81,11.66c-1.56,9.38-4.25,18.54-8.02,27.28
		c-3.05,6.99-7.52,13.27-13.13,18.45c-5.47,4.89-11.97,8.49-19.01,10.53c-8.29,2.32-16.86,3.44-25.47,3.3
		c-16.6,0-29.16-3.36-37.69-10.07c-8.53-6.72-12.79-18-12.79-33.84c0.01-3.52,0.2-7.03,0.57-10.53c0.38-3.69,0.94-7.58,1.7-11.66
		c1.59-9.35,4.33-18.48,8.15-27.16c3.1-7.03,7.61-13.34,13.24-18.56c5.47-4.89,11.97-8.49,19.01-10.53
		C894.44,301.32,903.01,300.21,911.61,300.34z M897.13,397.7c3.49,0.09,6.97-0.41,10.3-1.47c2.79-0.98,5.25-2.7,7.13-4.98
		c2.23-2.82,3.95-5.99,5.09-9.39c1.69-4.88,3.01-9.87,3.96-14.94c1.57-6.84,2.48-13.81,2.72-20.83c0-6.94-1.51-11.58-4.53-13.92
		c-4.02-2.62-8.79-3.85-13.58-3.51c-3.49-0.08-6.97,0.41-10.3,1.47c-2.79,0.98-5.25,2.7-7.13,4.98c-2.21,2.8-3.9,5.98-4.98,9.38
		c-1.59,4.82-2.88,9.73-3.85,14.71c-1.55,6.92-2.46,13.97-2.72,21.05c-0.62,5.03,0.99,10.08,4.41,13.81
		C887.6,396.77,892.36,398.06,897.13,397.7z"/>
	<path id="Path_1611" class="st0" d="M1001.02,254.16h35.99l-32.82,168.19H968.2L1001.02,254.16z"/>
	<path id="Path_1612" class="st0" d="M1049.01,303.96H1085l-23.11,118.37h-35.99L1049.01,303.96z"/>
	<path id="Path_1613" class="st0" d="M1144.53,422.8c-8.55,0.19-17.08-0.8-25.35-2.94c-6.04-1.56-11.65-4.46-16.41-8.49
		c-4.09-3.6-7.18-8.2-8.96-13.36c-1.88-5.65-2.8-11.58-2.72-17.54c0.04-6.91,0.72-13.81,2.04-20.6c1.66-10,4.9-19.67,9.62-28.64
		c3.69-6.81,8.92-12.66,15.28-17.09c6.23-4.15,13.24-7,20.6-8.38c8.43-1.57,17-2.33,25.58-2.26h6c2.34,0,4.79,0.04,7.36,0.11
		c2.57,0.08,5.19,0.16,7.92,0.23c2.74,0.07,5.28,0.11,7.7,0.11l-10.64,28.3c-3.17-0.15-6.45-0.26-9.85-0.34
		c-3.4-0.08-7.13-0.11-11.21-0.11c-4.29-0.06-8.58,0.32-12.79,1.13c-3.33,0.66-6.44,2.13-9.05,4.3c-2.7,2.4-4.83,5.38-6.23,8.72
		c-1.92,4.61-3.29,9.44-4.07,14.37c-0.75,3.47-1.32,6.61-1.7,9.39c-0.35,2.44-0.54,4.89-0.57,7.36c0,7.09,1.81,11.77,5.43,14.03
		c5.41,2.66,11.43,3.83,17.45,3.4h13.24c4.45,0,9.92-0.16,16.41-0.47l-10.85,28.3c-3.92,0.15-8.07,0.26-12.45,0.34
		C1151.95,422.75,1148.02,422.79,1144.53,422.8z"/>
	<circle id="Ellipse_12" class="st0" cx="1074.45" cy="269.89" r="18.86"/>
</g>
</svg>
